<svg xmlns:dc="http://purl.org/dc/elements/1.1/" xmlns:cc="http://creativecommons.org/ns#" xmlns:rdf="http://www.w3.org/1999/02/22-rdf-syntax-ns#" xmlns:svg="http://www.w3.org/2000/svg" xmlns="http://www.w3.org/2000/svg" version="1.1" width="742" height="1049"><rect id="backgroundrect" width="100%" height="100%" x="0" y="0" fill="none" stroke="none"/>
  <defs id="defs4"/>
  <metadata id="metadata7">
    <rdf:RDF>
      <cc:Work rdf:about="">
        <dc:format>image/svg+xml</dc:format>
        <dc:type rdf:resource="http://purl.org/dc/dcmitype/StillImage"/>
        <dc:title/>
      </cc:Work>
    </rdf:RDF>
  </metadata>
  
<g class="currentLayer" style=""><title>Layer 1</title><g id="layer4" style="display:inline" class="">
    <path d="m98.36384985169146,943.974245048081 c77.5065740582707,-6.76346276176574 157.8317233965962,-14.642209012341342 238.07997374259404,-13.994847059268569 c28.945252776191218,0.05018309713742429 76.60431728704526,-0.00716901387677491 86.89008219547388,0.3390943563714527 c20.52998087946321,-0.6624168822140011 116.27953752049551,8.1830708896447 122.52872886994813,10.8040623629936 c6.9358133939128965,2.8527656919850357 4.097467389622302,16.98403908532862 0,17.10877992678451 c-12.61141040853641,0.6968281488225202 -27.880553651344584,4.5835090221160275 -27.579856143967316,9.907863938257968 l-0.6028550066980978,80.55132667999773 l-396.9421290364614,0.5570323782254092 l0.22112794645283393,-77.32104071726175 c-6.041105997695649,-8.166223707034279 -13.122997668862242,-14.837277879928385 -22.863851000853103,-16.22957206493684 c-4.2520562032470455,-0.3097013994766754 -3.557282537101841,-10.662546029066064 0.26876018361172505,-11.722628111024768 z" id="path3849" style="fill:#003311;fill-opacity:1;stroke:#9fdcad;stroke-width:0.2;stroke-linecap:butt;stroke-linejoin:miter;stroke-miterlimit:4;stroke-opacity:1;stroke-dasharray:none"/>
    <path d="m91.04965521240406,896.9452989460212 c38.191564253797395,-76.46592074204004 80.34177499658287,-113.97183557074696 129.04631540502658,-414.4118727805718 c2.234882667616014,-12.138144155322639 -19.084588855331344,-33.160352546174906 -15.397440034849172,-44.77221939280349 c36.83328508229839,-113.19092205816372 112.62876683260725,-135.0334305238382 136.5740338660608,-134.96900259612764 c17.65446591360929,0.12345041895806368 85.34017908138165,-10.120747805328799 121.86053922377538,133.4842496391504 c4.489231894479592,10.937872007003602 -24.37103718399646,21.859828803200767 -23.658439449540204,34.21747382540249 c23.13941231360194,156.9163077066528 62.33459936260672,337.2469731855462 113.72199663335108,422.64942817567993 c3.5642053322342577,5.121471823429215 2.7806763225196773,31.12305501365914 -2.5579667181279797,31.26973303757795 c-36.700608314426695,-2.660134289116093 -82.88386430232455,-10.44066504957988 -119.94022398700052,-10.58117772156467 l-130.64074827339763,-0.4953788588851455 c-81.52332214331302,0.36561970771552 -140.051156762161,11.517307553593932 -205.71662432792107,19.391752395843476 c-6.062117715083493,1.5196158714599741 -5.3626538248195805,-31.630549505996036 -3.291442337377254,-35.782985723701586 zM400.85221984673467,419.3727291928017 L585.4695394367983,766.7498415918553 c2.309889753716795,4.342558465717624 2.9897593354380807,10.530851244149714 0,13.121876239493687 c-13.668444575679311,9.825276898397524 -40.529863017416105,32.87014369542917 -41.00801037893448,29.44414365385723 c-0.5389803591670173,-6.5468868525483686 12.569253141165898,-18.5832310108208 22.26925711523569,-29.764168433316467 c2.8158986281582465,-4.041674953309382 2.6505545405492206,-8.446818910171247 0.27131516951296825,-13.121876239493687 L425.23949944110336,492.151016731837 c-2.2671241563697984,-4.699862117336084 -6.3240159365604525,-6.6478265679333575 -13.307218235641642,0 l-33.403824839855886,38.40548268996461 c-1.5117608245665397,2.408215141486222 -4.338061895322703,6.571548260284473 -0.8147363375083366,13.44190101895292 l23.851219219088765,48.570499155982496 c0.9990603203837384,2.2866286661361213 2.3961509443825793,1.8009996661233882 3.4861565962510435,1.0461741950377605 c17.37554661939024,-11.583262481260263 39.519548592467366,-24.964226882260593 43.85797548577596,-22.96693961619111 c3.894346010473468,2.460047111815305 -16.210351382428048,28.407217486720505 -29.789553950556787,48.250474376523265 c0,0 -0.7803048608392017,1.2607427803696327 -0.06509130748405294,2.368570494747658 l25.355010920963338,42.95314664269676 c0.5937300570508005,0.8445098346840834 1.4991683940532705,1.3332932008025955 2.542575969722873,0.49896336582353334 c15.485465382446764,-12.077350917647589 45.34406478533477,-37.555954545566784 46.45311116546726,-36.229113457253284 c1.8729871646042096,2.5028461246596514 -23.520287711880123,32.7609596140859 -36.241866679158235,50.27909023323426 c-0.5474969788378282,0.6638506849893553 -1.0415217527424943,1.8446589606329482 -0.1490408442391865,2.976431181359401 l39.32415300401991,54.695704612298954 c1.04219091571663,1.1502682765285321 2.339211258583446,1.7749044556119287 3.8699519784163603,1.0402239135200373 c11.149471809044115,-7.435629502852147 31.85921419655908,-24.952899840335288 33.390259081380236,-22.259214566275894 c1.0585549920841157,1.5729533347031812 -11.195096557280602,22.34466921168705 -17.652458424686888,34.88499504549676 c-0.78851731552177,1.7735423429753405 -2.97011027719757,4.924610702372977 -0.5432386690024226,9.601316904887076 l20.91134294172258,32.96470298846384 c1.9386868020647468,3.022241180031991 2.300703971071849,11.928450499426976 -2.1725896780237988,16.962388663420768 c-1.8967728666848287,1.884877128481656 -6.350052459554069,1.4925886891445335 -10.59151155461072,-4.160608893525077 l-154.7982008026497,-251.55560693617844 c-4.4764569649733765,-8.198555959618531 -10.296714848005376,-16.119312631512038 -0.8147363375083366,-27.203826817365073 l41.00794954593683,-48.64684915377015 c5.4461957804904655,-7.1065000757694134 3.0202975002577013,-12.992833989711741 0.8147363375083366,-16.962388663420768 l-21.454520777727357,-38.40551853503399 zm-4.997004925852852,-12.60979357827566 l319.5979547487135,-232.10682503494522 c2.2381068164913915,-1.6239393613948039 5.8855925225066485,-3.6538169645481053 9.33476265618731,7.050983232307669 c20.967552631549932,57.49144796790813 18.447606536952357,76.33695735141075 15.479807913665441,81.6115449732201 c-1.9523742265356947,3.1686682884651205 -17.920488612326825,-30.451612342974276 -27.157553474290413,-46.406568162347384 c-2.6683786088602743,-4.06212814989982 -7.425214859996266,-3.802796241921367 -11.406187059121407,-0.9601316904887089 l-38.97113911866481,27.843940897408427 c-0.8770901600982006,0.7994167373991685 -2.0559119885336914,1.3981010862486425 -1.2221349227613292,4.480633672984308 c13.746979975643715,45.12538652341505 10.766649754841177,45.74647404062945 8.962038879594045,47.046646397321354 c-2.0469695378793404,1.2755324559974193 -14.151701909000167,-19.47498464695283 -25.256583130767822,-38.08538622036661 c-3.78770576559539,-5.4472533210315 -8.859961109539618,-3.5886577974221003 -13.307218235641642,0 l-45.760527487237404,33.28471342989532 c-1.6252143651812674,1.3050831311974869 -1.8454298166693706,3.3707914657069082 -1.2220740897636806,7.361043082478183 c8.032389009527417,49.37055393561669 4.761824556943181,50.362838653342735 3.8020623530404696,51.20723378380479 c-3.829984698961199,2.4668003228872237 -4.263298141212515,-0.7886202025007457 -23.627110455751154,-39.36556419735618 c-2.789071276195191,-5.08138269783029 -9.54360233711512,-2.794632158458267 -13.307218235641642,0 l-83.64537176689032,61.12864715828988 c-2.2842790617067177,2.140072515453208 -2.5875315549852242,5.072206360068018 -0.5432386690024226,8.321174772966891 l26.885994972786847,38.0853575443111 c3.31406004590302,4.642151555628047 7.62207044038729,3.8157506499966947 10.048272885608299,1.9202920570329232 l196.6209475190925,-144.66044834347352 c3.499418189738448,-2.6733252746493577 23.765018861420636,-11.014071455499844 30.68288652102718,-3.6575806968334152 c0.9085408198825514,0.9910229712837313 0.0851661967081066,1.0584332087670452 -0.27131516951296825,1.5602139970441513 l-234.02527195031874,174.12165425035747 c-8.191710630369224,6.282300057398237 -11.575302792584647,5.19157044111632 -14.054004114776436,0.8802115237904218 l-31.910192248588643,-63.44894868260519 c-2.4120891897665264,-4.480153349054564 -6.581278683616575,-3.1878454005854913 -11.134628557617845,0.6401212490572303 l-39.10691836941659,33.924798833883166 zm-8.636095678192595,16.29029361247312 l-335.72206319037514,257.8605037253163 c-7.6119356629790245,5.309801817972094 -13.26673995900623,6.177682637894461 -15.96866188276997,0.448063367298431 c-11.533571356197676,-29.7225164626924 -41.127060555332875,-86.04895666154134 -34.598767412668266,-89.1646100923877 c4.137544168473231,-2.2368040196925327 28.045423241571942,33.581166491727714 42.202892118749205,50.631160504722665 c3.042373795104395,3.6518956688291313 6.103526736582925,2.1256843046025238 10.265568353209266,-0.448063367298431 l245.23297918801194,-174.29664987908953 c3.166844191593293,-2.6398459798448197 5.238572759515631,-6.49548502305189 3.421856117736422,-9.857429925634861 l-15.208249412161877,-23.747358466816827 c-2.9453512471545666,-4.548022403425993 -8.181734018754847,-2.656764852594011 -11.78637504452616,-0.448063367298431 L102.82489781836047,541.117962355205 c-3.360329623914581,2.6731818943718237 -2.4217738029921883,6.849562618425806 -0.7604124706080944,13.44190101895292 c5.026837427899749,15.57762194298293 12.977053224203372,35.33183968043613 10.645774588513314,37.189259485769746 c-2.2964456612364472,1.558758687227165 -16.951723124772116,-17.779512865095572 -26.614436471283284,-28.676055507099562 c-2.3880540723955446,-2.937144985314672 -6.1661482243624475,-6.207290665205539 -12.1665995297295,-1.3441901018952933 l-28.51546764780352,23.299295099518396 c-5.829766080564483,4.032068474714504 -11.21356545536673,4.385142408145667 -15.96866188276997,-0.448063367298431 l-11.406187059121407,-12.99383765165449 c-3.3213843388199176,-4.0820365014356215 -5.302508240044361,-7.927137094243841 -1.5208249412161883,-10.753520815162336 L282.2821982987723,406.2508529533081 c6.4725092838208,-3.7849525663820707 11.722579479892023,0.7212959931839521 14.067630706249735,4.928697040282738 l20.91134294172258,38.98151295496347 c4.4200647761530805,6.670050510951363 8.77217909393262,3.2931223693659275 10.645774588513314,1.7922534691937235 l53.22887294256657,-41.221829791455626 zm-124.13729324367294,-354.32621677515846 l112.73110618455154,209.69365589566556 c2.8214344309442714,5.461154038938563 2.312444739618039,10.550250595700263 -0.3802062353040474,13.44190101895292 l-21.101446059374602,23.971390150466043 c-4.72185727748802,4.848174676418803 -9.008576122795263,4.904566139573514 -10.645774588513314,2.240316836492153 l-70.90844463430545,-117.39260223218884 c-4.423477507321169,-7.67981328450898 -2.2989763139386294,-10.29306939188484 0.3802062353040474,-13.889964386251352 c10.88446502138731,-12.90429666833357 33.06186431017354,-31.236913292050076 29.79184735456815,-37.317276566567315 c-1.2755462946968414,-2.1837318099627696 -6.87583205823133,-2.134100726893859 -11.541966309873189,0.8001121317452157 l-25.85398141757684,15.458186171795859 c-5.142474873130063,2.552556066881211 -11.758708197195556,2.145105163194708 -14.447836941553783,-2.0162851528429395 l-28.70557076545554,-45.2544000971415 c-3.012650792453265,-4.64463203442941 -5.827186761464184,-11.872804613715449 -0.5703093529560713,-17.69850300828801 l32.51944080333961,-33.46061952338973 c2.9631753154656213,-2.7434310613503388 6.90581664277235,-2.1423092477827645 8.732935727149478,1.4240887615519502 zm-105.507230296873,-27.779928772502704 c-3.031953102607181,2.659818852505514 -0.7937915364179072,6.231414396900887 0.7604124706080944,8.961267345968613 l223.3711206580292,359.79488394063986 l12.927012000337598,-2.912411887439804 l-31.557117530235892,-57.128079330549916 c-4.382104985620324,-9.50243469648472 -2.7278732805606536,-14.017544157202439 0,-15.90624953909429 l32.50763311849601,-30.020245608994856 c6.097960517298076,-4.598671486465406 2.845280966022541,-11.231263899910617 0.5700051879678277,-17.474471324638795 l-135.73327925545817,-246.8829153814353 c-5.337262131601031,-8.281917252977673 -14.818760061416645,-21.832615226524528 -23.572786588850906,-15.682217855445074 c-4.128370552427816,2.9005041553904785 10.153094223856684,15.751986698493853 14.828043176857829,24.419453517764474 c2.9067587934462646,5.320820592300695 5.286320579370056,11.159143620310255 1.0319892220109517,13.313883938155353 c-14.305408644159007,4.401244013312902 -31.132217291559382,16.54394049244729 -42.74604562155493,24.963531487914548 c-3.8210118318080224,3.2510689339647674 -7.081928170965182,1.2217074998105941 -10.184094719458436,-2.304328961397877 l-14.25773382390176,-20.514900292876167 c-5.689381771890702,-8.845007447928957 -3.7919640754307946,-17.133771109158946 0.7875683207584504,-21.090980740972167 l40.49196405988099,-30.660338181996583 c8.079954330388894,-6.745174607366084 16.403459650163914,-14.678075588766843 -8.767519286312734,-10.801538870108976 c-21.463962058962423,3.2044488367241013 -60.45717138917415,39.92565774450697 -60.45717138917415,39.92565774450697 zm133.49152245910787,568.4917243018093 l-5.376967829166306,71.92019242305462 l22.583033717107416,6.336547985403792 l5.376967829166306,-78.89033785488778 zm-80.11621840790121,128.6324689487516 l18.55040213637904,-0.31687041335345056 l-11.022708008543862,61.78155792810327 l-17.743860003653978,-4.752410989052844 zm182.0089953164822,42.45504355853844 l30.917336893965068,-0.9504678597828157 l5.6457888457756775,88.71203024634691 l-29.841931161532273,-4.435612265838162 zM444.70672785164464,435.3199854912711 c5.297398268241873,0.5095018162223921 5.893744144191566,-10.448070640914588 2.661443647128329,-17.69850300828801 c-13.805075488398174,-30.414354977856675 -25.494805149559927,-74.74907096080224 -58.171554001519176,-98.57394080565476 c-4.664126762719453,-3.427333478153035 -7.4914619944356415,-5.6706039483624195 -18.24989929459425,-3.8085386220366595 c-52.57406655587652,9.536681075774075 -102.90795189004184,-0.035845069383874495 -151.33723515072495,112.77197205621887 c-2.665683707064439,6.460055756472868 2.6950660449287374,5.456372306682758 7.9795738009688595,3.962149082374318 c11.03262378716059,-3.1195390363675806 43.850523443564,-7.348533153263215 77.85877278145732,-12.65298688688323 c68.03313041734378,-7.535931176002106 92.71058341049647,10.5394970748851 139.25889821728384,15.999848184269464 zM247.49705074790805,515.8175804122625 L159.17184513830543,875.3181763332605 c-1.03838885336359,5.050928726881749 0.10694440986632243,8.42445158687571 3.8020623530404696,8.513203978670184 c0,0 198.06372372432548,4.25760565127784 200.3686860052327,4.480633672984308 c3.928838320140252,0.3799577354690695 6.914765176726464,-2.3728002129349552 6.843712235472842,-6.272887142178031 l2.1316490706062585,-76.61883580803165 c-0.1514741641451325,-108.81580910043166 31.44980812238368,-338.76780778936524 -112.2740982897161,-350.09125086970346 c-8.60904324413824,-0.7749704000793661 -18.943620549880134,5.477972545493477 -23.043527342708142,13.177421759010942 c-1.3850821902629966,2.6011333049102356 -2.4956676452360003,4.848260704585324 1.7671985816932114,9.26215085837686 c6.6152782460024095,6.3940434766955265 11.970546944907442,24.510213233444443 8.729522995981391,38.04896762987259 z" id="path4168-0" style="fill:#003311;fill-opacity:1;fill-rule:evenodd;stroke:#9fdcad;stroke-width:0.2;stroke-linecap:butt;stroke-linejoin:miter;stroke-miterlimit:4;stroke-opacity:1;stroke-dasharray:none;display:inline"/>
    <path d="m327.3820794315454,321.5246295351287 l-9.020256058343804,-14.796988021940912 l16.2685685611778,-3.0876656006714365 l9.172095220474828,14.98834334033979 z" id="path3816" style="fill:#003311;fill-opacity:1;fill-rule:evenodd;stroke:#9fdcad;stroke-width:0.2;stroke-miterlimit:4;stroke-opacity:1;stroke-dasharray:none"/>
    <path d="m365.3095068095523,303.1846790102163 l21.900730815480184,7.877226419633731 l-3.517972254021285,4.065497586421906 l-31.30131477512333,3.3743616346175447 z" id="path3818" style="fill:#003311;fill-opacity:1;fill-rule:evenodd;stroke:#9fdcad;stroke-width:0.2;stroke-miterlimit:4;stroke-opacity:1;stroke-dasharray:none"/>
    <path d="m381.47538927069917,410.3617160595422 l14.063554895407275,-3.174009203803318 l5.3099906987551435,11.552679468061942 l-13.61381654379083,4.193980653121463 z" id="path3820" style="fill:#003311;fill-opacity:1;fill-rule:evenodd;stroke:#9fdcad;stroke-width:0.2;stroke-miterlimit:4;stroke-opacity:1;stroke-dasharray:none"/>
    <path d="m432.6380694481294,380.8621487594036 l8.412230246845573,-6.50635324808908 l3.5462595979279072,6.970833657165328 l-8.88861345143213,6.9914087269916685 z" id="path3822" style="fill:#003311;fill-opacity:1;fill-rule:evenodd;stroke:#9fdcad;stroke-width:0.2;stroke-miterlimit:4;stroke-opacity:1;stroke-dasharray:none"/>
    <path d="m206.24343930756672,561.5222662710044 l6.261072033893393,-32.69801567224781 l39.59590617111595,-28.217095238708435 l-2.5609597016122936,28.641285789797205 z" id="path3824" style="fill:#003311;fill-opacity:1;fill-rule:evenodd;stroke:#9fdcad;stroke-width:0.2;stroke-miterlimit:4;stroke-opacity:1;stroke-dasharray:none"/>
  </g></g></svg>